<?xml version="1.0" standalone="no"?>
<!DOCTYPE svg PUBLIC "-//W3C//DTD SVG 20010904//EN"
 "http://www.w3.org/TR/2001/REC-SVG-20010904/DTD/svg10.dtd">
<svg version="1.0" xmlns="http://www.w3.org/2000/svg"
 width="460.000000pt" height="460.000000pt" viewBox="0 0 460.000000 460.000000"
 preserveAspectRatio="xMidYMid meet">
<metadata>
Created by potrace 1.14, written by Peter Selinger 2001-2017
</metadata>
<g transform="translate(0.000000,460.000000) scale(0.100000,-0.100000)"
fill="#000000" stroke="none">
<path d="M3698 3525 l-3 -390 -557 -3 -558 -2 0 -780 0 -780 -387 0 -388 0
110 -110 110 -110 387 0 388 0 0 780 0 780 145 0 145 0 0 -42 c0 -87 81 -168
167 -168 39 0 99 28 130 62 24 25 47 107 37 132 -5 14 22 16 245 16 l251 0 0
393 0 392 -110 110 -110 109 -2 -389z"/>
<path d="M741 3132 l-54 -3 109 -110 109 -109 142 0 143 0 0 -49 c0 -33 7 -58
23 -82 26 -39 97 -79 142 -79 41 0 114 38 139 72 11 16 21 49 24 83 l4 55 139
0 139 0 0 110 0 110 -502 2 c-277 2 -527 2 -557 0z"/>
<path d="M1130 1518 c0 -29 9 -94 19 -144 75 -363 413 -662 780 -690 l91 -7 0
109 0 110 -107 17 c-154 24 -249 73 -363 187 -123 122 -177 234 -196 408 l-7
62 -108 0 -109 0 0 -52z"/>
</g>
</svg>
